<svg width="53" height="53" viewBox="0 0 53 53" fill="none" xmlns="http://www.w3.org/2000/svg">
<path fill-rule="evenodd" clip-rule="evenodd" d="M26.5 52C40.5833 52 52 40.5833 52 26.5C52 12.4167 40.5833 1 26.5 1C12.4167 1 1 12.4167 1 26.5C1 40.5833 12.4167 52 26.5 52Z" stroke="white" stroke-width="2"/>
<path fill-rule="evenodd" clip-rule="evenodd" d="M25.133 17.0254L30.3114 13.955C31.0648 13.5081 31.0664 12.7804 30.3155 12.3304L25.0892 9.19843C24.3373 8.74915 23.7306 9.0883 23.7342 9.95834L23.7624 16.2594C23.7646 17.129 24.3787 17.4722 25.133 17.0254ZM14.1818 26.4928C14.1818 30.4633 16.0368 34.0037 18.9355 36.3126C20.5454 37.5202 18.9546 40.6706 16.395 38.31C13.0881 35.4241 11 31.2016 11 26.4928C11 18.8729 16.4656 12.5165 23.7272 11.0574V14.3042C18.2409 15.7063 14.1818 20.6235 14.1818 26.4928ZM34.8372 16.6376C33.2728 15.4671 35.6592 13.1043 37.289 14.5618C40.6742 17.4499 42.8182 21.7216 42.8182 26.4925C42.8182 34.1136 37.3526 40.469 30.091 41.9297V38.6822C35.5768 37.2811 39.6366 32.363 39.6366 26.4928C39.6366 22.5031 37.7628 18.9459 34.8372 16.6376ZM23.5029 39.1093L28.7299 35.9773C29.4802 35.528 30.0878 35.8674 30.0851 36.7367L30.0579 43.0375C30.054 43.9083 29.4386 44.2503 28.6852 43.8044L23.5072 40.7338C22.7529 40.2868 22.7513 39.5592 23.5029 39.1093Z" fill="white"/>
</svg>
