<svg width="53" height="53" viewBox="0 0 53 53" fill="none" xmlns="http://www.w3.org/2000/svg">
<path fill-rule="evenodd" clip-rule="evenodd" d="M26.5 52C40.5833 52 52 40.5833 52 26.5C52 12.4167 40.5833 1 26.5 1C12.4167 1 1 12.4167 1 26.5C1 40.5833 12.4167 52 26.5 52Z" stroke="#DFDFDF" stroke-width="2"/>
<path d="M35.2832 38H17.7402V34.5195L26.0195 25.6953C27.1562 24.4531 27.9941 23.3691 28.5332 22.4434C29.084 21.5176 29.3594 20.6387 29.3594 19.8066C29.3594 18.6699 29.0723 17.7793 28.498 17.1348C27.9238 16.4785 27.1035 16.1504 26.0371 16.1504C24.8887 16.1504 23.9805 16.5488 23.3125 17.3457C22.6562 18.1309 22.3281 19.168 22.3281 20.457H17.2305C17.2305 18.8984 17.5996 17.4746 18.3379 16.1855C19.0879 14.8965 20.1426 13.8887 21.502 13.1621C22.8613 12.4238 24.4023 12.0547 26.125 12.0547C28.7617 12.0547 30.8066 12.6875 32.2598 13.9531C33.7246 15.2188 34.457 17.0059 34.457 19.3145C34.457 20.5801 34.1289 21.8691 33.4727 23.1816C32.8164 24.4941 31.6914 26.0234 30.0977 27.7695L24.2793 33.9043H35.2832V38Z" fill="#DFDFDF"/>
</svg>
