<svg width="53" height="53" viewBox="0 0 53 53" fill="none" xmlns="http://www.w3.org/2000/svg">
<path fill-rule="evenodd" clip-rule="evenodd" d="M26.5 52C40.5833 52 52 40.5833 52 26.5C52 12.4167 40.5833 1 26.5 1C12.4167 1 1 12.4167 1 26.5C1 40.5833 12.4167 52 26.5 52Z" stroke="white" stroke-width="2"/>
<path fill-rule="evenodd" clip-rule="evenodd" d="M42.8159 19.417L36.1213 10.3794C35.9443 10.1409 35.665 10 35.3679 10C35.0708 10 34.7913 10.1409 34.6147 10.3794L27.9202 19.417C27.7095 19.7014 27.677 20.0806 27.8364 20.3967C27.9956 20.7129 28.3196 20.9126 28.6736 20.9126H31.0833V25.4438C30.6113 25.2007 30.0769 25.0625 29.5103 25.0625H27.8367C25.9355 25.0625 24.3889 26.6091 24.3889 28.5103V30.4646C23.917 30.2214 23.3823 30.0833 22.8159 30.0833H21.1423C19.2412 30.0833 17.6946 31.6301 17.6946 33.5312V35.4854C17.2224 35.2424 16.688 35.104 16.1216 35.104H14.4478C12.5466 35.104 11 36.6509 11 38.552V41.0625C11 41.5803 11.4197 42 11.9375 42H38.7151C39.2329 42 39.6526 41.5803 39.6526 41.0625V20.9126H42.0625C42.4165 20.9126 42.7405 20.7129 42.8997 20.3967C43.0591 20.0806 43.0266 19.7014 42.8159 19.417ZM12.875 38.552C12.875 37.6848 13.5806 36.979 14.4478 36.979H16.1213C16.9888 36.979 17.6943 37.6848 17.6943 38.552V40.125H12.875V38.552ZM19.5693 33.5312V38.552V40.125H24.3887V33.5312C24.3887 32.6638 23.6831 31.9583 22.8159 31.9583H21.1423C20.2749 31.9583 19.5693 32.6638 19.5693 33.5312ZM26.2639 33.5312V28.5103C26.2639 27.6431 26.9695 26.9375 27.8367 26.9375H29.5103C30.3774 26.9375 31.0833 27.6431 31.0833 28.5103V40.125H26.2639V33.5312ZM37.7776 19.9751C37.7776 19.4573 38.1973 19.0376 38.7151 19.0376H40.2014L35.3679 12.5125L30.5347 19.0376H32.0208C32.5383 19.0376 32.9583 19.4573 32.9583 19.9751V40.125H37.7776V19.9751Z" fill="white"/>
</svg>
