<svg width="53" height="53" viewBox="0 0 53 53" fill="none" xmlns="http://www.w3.org/2000/svg">
<path fill-rule="evenodd" clip-rule="evenodd" d="M26.5 52C40.5833 52 52 40.5833 52 26.5C52 12.4167 40.5833 1 26.5 1C12.4167 1 1 12.4167 1 26.5C1 40.5833 12.4167 52 26.5 52Z" stroke="white" stroke-width="2"/>
<path fill-rule="evenodd" clip-rule="evenodd" d="M39.3488 23.1463C41.0025 23.1463 42.348 24.4918 42.348 26.1455C42.348 27.1501 41.851 28.0404 41.0904 28.5849C41.349 29.028 41.4982 29.5425 41.4982 30.0915C41.4982 31.1058 40.9916 32.0033 40.2189 32.5462C40.4722 32.986 40.6177 33.495 40.6177 34.0376C40.6177 35.0708 40.0927 35.9833 39.2955 36.523C39.5378 36.9556 39.6766 37.4537 39.6766 37.9837C39.6766 39.4402 38.633 40.657 37.2542 40.9265V40.9828H22.4331L18.6968 39.0374V40.9828H11.0342V22.6608H18.6966V24.2999H19.4161L24.9284 19.868H29.2743V18.4874C27.2119 17.3199 25.9129 15.1255 25.9129 12.7221C25.9129 11.351 26.3285 10.0355 27.1148 8.91719C27.8821 7.82558 28.9454 6.999 30.1892 6.52712L31.5792 6V10.4508L32.5379 11.0425L33.4963 10.4508V6L34.8866 6.52739C36.1303 6.999 37.1934 7.82558 37.961 8.91719C38.7473 10.0355 39.1625 11.3513 39.1625 12.7221C39.1625 15.098 37.8841 17.281 35.8544 18.4564V23.1463H39.3488ZM29.527 9.28498C28.5571 10.1396 27.9651 11.3884 27.9651 12.7221C27.9651 14.5405 29.0429 16.1859 30.711 16.9143L31.3264 17.183V23.1466H33.8022V17.1667L34.408 16.8945C36.0497 16.1573 37.1104 14.5196 37.1104 12.7221C37.1104 11.3884 36.5187 10.1396 35.5485 9.28498V11.5955L32.5379 13.4547L29.527 11.5952V9.28498ZM19.3491 38.9307H13.0864V24.713H19.3491V26.352H18.6968V36.7237L19.3491 37.0633V38.9307ZM19.3491 37.0633L22.9354 38.9307H36.6777C37.1998 38.9307 37.6247 38.506 37.6247 37.984C37.6247 37.4617 37.1998 37.037 36.6777 37.037H31.5477V34.9848H37.6185C38.1409 34.9848 38.5655 34.5599 38.5655 34.0379C38.5655 33.5156 38.1409 33.0909 37.6185 33.0909H32.4888V31.0388H38.499C39.0211 31.0388 39.4457 30.6139 39.4457 30.0918C39.4457 29.5695 39.0211 29.1449 38.499 29.1449H33.369V27.0927H39.3488C39.8709 27.0927 40.2958 26.6678 40.2958 26.1457C40.2958 25.6234 39.8709 25.1988 39.3488 25.1988H29.2468V21.9205H25.6511L20.1389 26.352H19.3491V37.0633Z" fill="white"/>
</svg>
